<svg id="evSBjVDbMXK1" xmlns="http://www.w3.org/2000/svg" xmlns:xlink="http://www.w3.org/1999/xlink" viewBox="0 0 300 300" shape-rendering="geometricPrecision" text-rendering="geometricPrecision"><ellipse rx="83.37361" ry="75.398744" transform="translate(150 142.097632)" fill="#f3ddc0" stroke-width="0"/><ellipse rx="15" ry="15" transform="translate(120.288062 116.185579)" fill="#fff"/><ellipse rx="15" ry="15" transform="translate(172.172651 113.833846)" fill="#fff"/><g id="evSBjVDbMXK5" transform="translate(-4.000002 0.860336)"><ellipse rx="7.5" ry="7.5" transform="translate(168.172651 114.56867)" fill="#8183e1" stroke-width="0"/><ellipse rx="4" ry="4" transform="translate(168.172651 114.568668)" stroke-width="0"/></g><g id="evSBjVDbMXK8" transform="translate(-4.159334 0.000009)"><ellipse rx="7.5" ry="7.5" transform="translate(116.288062 116.185581)" fill="#8183e1" stroke-width="0"/><ellipse rx="4" ry="4" transform="translate(116.288062 116.18558)" stroke-width="0"/></g><rect id="evSBjVDbMXK12" width="20.299662" height="26.099565" rx="0" ry="0" transform="matrix(1.434209 0 0 0.654291 105.071749 81.757135)" fill="#f3ddc0"/><rect id="evSBjVDbMXK13" width="20.299662" height="26.099565" rx="0" ry="0" transform="matrix(1.434209 0 0 0.654291 157.172651 81.757135)" fill="#f3ddc0"/><path d="M148.21063,71.75814c2.21543-2.21543,3.1861-4.50654,4.90695-7.08781c1.23055-1.84582,2.67515-3.5499,3.81651-5.45216c6.17178-10.28631-9.74117-5.16127-8.72346-1.09043c3.04007,12.16029,20.82545-.95187,23.98951-4.90695" transform="translate(.000001 0)" fill="none" stroke="#000" stroke-width="2"/><ellipse id="evSBjVDbMXK15" rx="56.80815" ry="12.115915" transform="matrix(.539323 0 0 1.54 148.995265 168.658509)" stroke-width="0"/><polygon points="0,-17.111168 16.273688,-5.287642 10.057692,13.843226 -10.057692,13.843226 -16.273688,-5.287642 0,-17.111168" transform="matrix(.699047 0 0 1 143.842633 168.565078)" fill="#fff" stroke="#000"/><ellipse rx="56.80815" ry="13.812143" transform="translate(150 163.812143)" fill="#f3ddc0" stroke-width="0"/><rect width="24.898214" height="9.356278" rx="0" ry="0" transform="translate(135.288062 142.097632)" fill="#f3ddc0" stroke-width="0"/>

</svg>
